<?xml version="1.0" standalone="no"?><!DOCTYPE svg PUBLIC "-//W3C//DTD SVG 1.1//EN" "http://www.w3.org/Graphics/SVG/1.1/DTD/svg11.dtd" ><svg xmlns="http://www.w3.org/2000/svg"><metadata></metadata><defs><font id="SF Pro Text Bold; 13.0d1e33; 2017-05-30" horiz-adv-x="2067"><font-face font-family="SF Pro Text" font-weight="700" font-stretch="normal" units-per-em="2048" panose-1="0 0 8 0 0 0 0 0 0 0" ascent="1950" descent="-494" x-height="0" bbox="-29 -494 1980 1950" underline-thickness="197" underline-position="-277" unicode-range="U+0025-2011" /><missing-glyph horiz-adv-x="2048" d="M100 -494 l1848 0 l0 198 l-1848 0 l0 -198 ZM100 -45 l1848 0 l0 198 l-1848 0 l0 -198 ZM100 404 l1848 0 l0 199 l-1848 0 l0 -199 ZM100 853 l1848 0 l0 199 l-1848 0 l0 -199 ZM100 1303 l1848 0 l0 198 l-1848 0 l0 -198 ZM100 1752 l1848 0 l0 198 l-1848 0 l0 -198 Z" /><glyph glyph-name="" unicode="a" d="M1102 0 l327 0 l-501 1443 l-355 0 l-501 -1443 l303 0 l111 344 l507 0 l109 -344 ZM732 1143 l18 0 l179 -566 l-378 0 l181 566 Z" /><glyph glyph-name="" unicode="b" d="M823 0 q233 2 365 112 q132 109 134 301 q-3 142 -93 237 q-91 94 -237 107 l0 18 q113 19 186 105 q73 85 75 203 q-2 169 -118 264 q-117 94 -329 96 l-631 0 l0 -1443 l648 0 ZM477 1212 l252 0 q109 -1 168 -49 q58 -48 59 -135 q0 -88 -65 -135 q-64 -47 -187 -48 l-227 0 l0 367 ZM477 231 l0 410 l262 0 q134 0 204 -51 q71 -52 71 -151 q0 -102 -69 -155 q-68 -53 -199 -53 l-269 0 Z" /><glyph glyph-name="" unicode="c" d="M788 -37 q265 4 435 147 q169 142 192 380 l-294 0 q-24 -121 -112 -190 q-88 -70 -220 -71 q-173 2 -270 133 q-97 130 -99 360 q2 230 99 360 q97 130 269 132 q131 -2 220 -75 q88 -74 112 -200 l294 0 q-21 240 -193 388 q-171 149 -433 153 q-317 -3 -496 -203 q-178 -200 -181 -555 q3 -356 182 -556 q178 -200 495 -203 l0 0 Z" /><glyph glyph-name="" unicode="d" d="M175 1444 l0 -1444 l568 0 q326 2 501 190 q174 188 176 542 q-2 341 -178 526 q-175 184 -499 186 l-568 0 ZM477 1186 l218 0 q198 -1 307 -120 q109 -119 110 -339 q-1 -229 -108 -349 q-108 -119 -309 -120 l-218 0 l0 928 Z" /><glyph glyph-name="" unicode="e" d="M1131 258 l-654 0 l0 351 l617 0 l0 239 l-617 0 l0 337 l654 0 l0 258 l-956 0 l0 -1443 l956 0 l0 258 Z" /><glyph glyph-name="" unicode="f" d="M477 0 l0 562 l587 0 l0 247 l-587 0 l0 376 l643 0 l0 258 l-945 0 l0 -1443 l302 0 Z" /><glyph glyph-name="" unicode="g" d="M1443 589 l0 184 l-606 0 l0 -227 l313 0 l-1 -26 q-7 -132 -98 -211 q-92 -78 -243 -80 q-180 2 -283 133 q-103 130 -105 364 q2 229 101 358 q99 128 275 130 q127 -1 213 -61 q86 -60 121 -170 l300 0 q-35 228 -205 361 q-170 133 -429 136 q-318 -4 -500 -204 q-182 -201 -185 -553 q3 -357 185 -557 q182 -200 507 -203 q299 3 468 168 q169 166 172 458 l0 0 Z" /><glyph glyph-name="" unicode="h" d="M1429 0 l0 1443 l-302 0 l0 -582 l-650 0 l0 582 l-302 0 l0 -1443 l302 0 l0 603 l650 0 l0 -603 l302 0 Z" /><glyph glyph-name="" unicode="i" d="M477 0 l0 1443 l-302 0 l0 -1443 l302 0 Z" /><glyph glyph-name="" unicode="j" d="M76 424 q3 -215 134 -337 q131 -122 356 -124 q231 1 360 126 q128 125 130 359 l0 995 l-302 0 l0 -993 q0 -107 -49 -162 q-50 -55 -143 -55 q-88 1 -140 52 q-51 51 -54 139 l-292 0 Z" /><glyph glyph-name="" unicode="k" d="M477 0 l0 435 l143 169 l419 -604 l362 0 l-563 810 l526 633 l-336 0 l-533 -643 l-18 0 l0 643 l-302 0 l0 -1443 l302 0 Z" /><glyph glyph-name="" unicode="l" d="M1119 263 l-642 0 l0 1180 l-302 0 l0 -1443 l944 0 l0 263 Z" /><glyph glyph-name="" unicode="m" d="M1703 0 l0 1443 l-355 0 l-400 -970 l-18 0 l-399 970 l-356 0 l0 -1443 l280 0 l0 965 l16 0 l368 -882 l201 0 l367 882 l16 0 l0 -965 l280 0 Z" /><glyph glyph-name="" unicode="n" d="M464 0 l0 903 l18 0 l666 -903 l250 0 l0 1443 l-289 0 l0 -899 l-18 0 l-664 899 l-252 0 l0 -1443 l289 0 Z" /><glyph glyph-name="" unicode="o" d="M806 1480 q-322 -3 -506 -203 q-185 -200 -189 -555 q3 -355 187 -555 q184 -200 508 -204 q324 4 507 204 q183 200 186 555 q-3 354 -187 554 q-183 200 -506 204 l0 0 ZM806 1215 q178 -2 281 -133 q102 -131 104 -360 q-2 -228 -104 -360 q-103 -131 -281 -134 q-180 3 -282 134 q-102 132 -104 360 q2 229 105 360 q103 131 281 133 l0 0 Z" /><glyph glyph-name="" unicode="p" d="M175 1443 l0 -1443 l302 0 l0 448 l285 0 q232 3 372 137 q139 133 143 359 q-3 228 -139 362 q-135 134 -361 137 l-602 0 ZM477 1195 l220 0 q131 0 202 -64 q70 -65 71 -188 q-1 -122 -72 -186 q-71 -64 -202 -64 l-219 0 l0 502 Z" /><glyph glyph-name="" unicode="q" d="M806 -37 q68 0 132 10 q64 9 121 28 l100 -142 l292 0 l-179 272 q110 95 168 245 q59 151 59 346 q-4 355 -187 555 q-184 200 -506 203 q-322 -3 -506 -203 q-185 -200 -189 -555 q3 -357 187 -556 q184 -200 508 -203 l0 0 ZM807 228 q-179 2 -282 133 q-103 131 -105 361 q2 229 105 360 q103 131 281 133 q177 -2 280 -133 q103 -131 105 -360 q0 -105 -27 -186 q-26 -82 -76 -136 l-67 81 l-274 0 l164 -240 q-25 -6 -51 -9 q-26 -4 -53 -4 l0 0 Z" /><glyph glyph-name="" unicode="r" d="M477 1199 l262 0 q114 -1 178 -60 q65 -59 66 -163 q-1 -105 -63 -163 q-63 -57 -178 -58 l-265 0 l0 444 ZM477 523 l247 0 l0 0 l269 -523 l342 0 l-304 570 q125 52 193 161 q68 109 69 249 q-2 217 -137 339 q-135 122 -375 124 l-606 0 l0 -1443 l302 0 l0 523 Z" /><glyph glyph-name="" unicode="s" d="M110 401 q11 -204 164 -320 q153 -116 414 -118 q274 2 428 125 q154 124 157 344 q1 167 -99 266 q-100 99 -316 144 l-174 37 q-126 26 -182 68 q-57 42 -56 108 q2 83 69 131 q67 48 182 49 q111 -1 183 -52 q71 -51 83 -138 l284 0 q-11 196 -160 314 q-150 118 -392 121 q-253 -3 -401 -123 q-148 -121 -151 -328 q0 -165 97 -268 q98 -103 295 -144 l188 -40 q132 -28 191 -71 q59 -44 58 -112 q-2 -83 -75 -133 q-73 -51 -193 -52 q-129 1 -209 52 q-81 51 -93 140 l-292 0 Z" /><glyph glyph-name="" unicode="t" d="M827 0 l0 1185 l433 0 l0 258 l-1168 0 l0 -258 l433 0 l0 -1185 l302 0 Z" /><glyph glyph-name="" unicode="u" d="M480 1443 l-302 0 l0 -945 q3 -243 164 -387 q160 -145 440 -148 q281 3 441 148 q161 144 164 387 l0 945 l-302 0 l0 -914 q-1 -138 -79 -217 q-78 -79 -224 -81 q-146 2 -223 81 q-78 79 -79 217 l0 914 Z" /><glyph glyph-name="" unicode="v" d="M925 0 l481 1443 l-325 0 l-322 -1103 l-18 0 l-328 1103 l-341 0 l488 -1443 l365 0 Z" /><glyph glyph-name="" unicode="w" d="M1025 955 l16 0 l273 -955 l283 0 l383 1443 l-312 0 l-223 -1017 l-16 0 l-268 1017 l-255 0 l-263 -1017 l-16 0 l-225 1017 l-314 0 l382 -1443 l285 0 l270 955 Z" /><glyph glyph-name="" unicode="x" d="M88 0 l326 0 l314 489 l18 0 l310 -489 l344 0 l-468 722 l0 0 l475 721 l-338 0 l-304 -505 l-18 0 l-301 505 l-355 0 l458 -716 l0 0 l-461 -727 Z" /><glyph glyph-name="" unicode="y" d="M877 0 l0 531 l502 912 l-327 0 l-317 -604 l-18 0 l-318 604 l-327 0 l503 -912 l0 -531 l302 0 Z" /><glyph glyph-name="" unicode="z" d="M135 0 l1114 0 l0 258 l-744 0 l0 18 l724 964 l0 203 l-1077 0 l0 -258 l709 0 l0 -18 l-726 -963 l0 -204 Z" /><glyph glyph-name="" unicode="a" d="M544 202 q-77 1 -124 35 q-47 35 -48 97 q0 59 46 93 q46 33 140 40 l223 14 l0 -81 q-2 -86 -68 -141 q-66 -55 -169 -57 l0 0 ZM448 -17 q109 1 192 43 q84 42 128 118 l18 0 l0 -144 l282 0 l0 753 q-1 178 -119 276 q-118 97 -338 98 q-210 -2 -338 -89 q-128 -88 -145 -243 l268 0 q18 50 69 76 q51 26 130 26 q90 0 138 -37 q48 -38 48 -107 l0 -90 l-267 -16 q-206 -12 -316 -97 q-110 -84 -111 -235 q3 -153 101 -242 q98 -88 260 -90 l0 0 Z" /><glyph glyph-name="" unicode="b" d="M796 -17 q210 2 327 152 q118 149 120 417 q-2 269 -119 418 q-117 149 -328 151 q-115 -1 -201 -52 q-87 -50 -130 -142 l-18 0 l0 597 l-291 0 l0 -1524 l282 0 l0 173 l18 0 q45 -91 134 -140 q88 -49 206 -50 l0 0 ZM695 877 q117 -1 182 -87 q66 -86 67 -238 q-1 -153 -66 -239 q-66 -86 -183 -87 q-117 2 -183 88 q-66 85 -68 237 q2 152 69 238 q66 86 182 88 l0 0 Z" /><glyph glyph-name="" unicode="c" d="M1122 714 q-19 191 -145 301 q-126 110 -346 112 q-260 -1 -399 -149 q-139 -148 -140 -424 q1 -279 141 -428 q139 -149 398 -150 q217 2 344 110 q127 109 147 296 l-272 0 q-17 -82 -73 -124 q-56 -43 -146 -43 q-118 1 -181 87 q-63 86 -64 252 q1 163 64 248 q63 85 181 86 q93 -1 149 -48 q55 -46 70 -126 l272 0 Z" /><glyph glyph-name="" unicode="d" d="M541 -17 q116 1 204 50 q88 50 133 140 l18 0 l0 -173 l282 0 l0 1524 l-291 0 l0 -597 l-17 0 q-44 92 -130 143 q-86 50 -199 51 q-210 -3 -328 -152 q-119 -150 -121 -416 q2 -267 120 -417 q119 -150 329 -153 l0 0 ZM640 877 q117 -2 183 -88 q66 -86 67 -238 q-1 -153 -66 -238 q-66 -86 -184 -87 q-118 1 -183 87 q-65 85 -66 239 q1 153 66 238 q66 86 183 87 l0 0 Z" /><glyph glyph-name="" unicode="e" d="M623 904 q103 -1 164 -64 q60 -62 66 -173 l-470 0 q9 109 73 172 q64 64 167 65 l0 0 ZM859 314 q-24 -55 -81 -84 q-57 -30 -144 -30 q-115 1 -181 72 q-67 70 -71 194 l0 15 l757 0 l0 89 q-2 265 -137 410 q-134 145 -380 147 q-248 -3 -388 -156 q-140 -153 -142 -425 q2 -271 141 -419 q139 -149 393 -151 q205 2 337 91 q132 89 167 247 l-271 0 Z" /><glyph glyph-name="" unicode="f" d="M231 0 l291 0 l0 863 l228 0 l0 229 l-234 0 l0 91 q-1 70 35 105 q36 34 121 34 q29 0 51 -2 q22 -1 36 -3 l0 206 q-31 5 -69 8 q-37 3 -81 3 q-198 0 -289 -83 q-90 -83 -89 -247 l0 -112 l-178 0 l0 -229 l178 0 l0 -863 Z" /><glyph glyph-name="" unicode="g" d="M636 246 q-119 1 -183 85 q-64 83 -65 231 q1 146 65 230 q64 83 183 85 q119 -2 185 -85 q66 -84 67 -231 q-1 -147 -67 -230 q-66 -83 -185 -85 l0 0 ZM632 -418 q253 2 397 114 q144 112 147 308 l0 1099 l-282 0 l0 -177 l-18 0 q-46 92 -134 143 q-88 51 -201 52 q-212 -3 -331 -152 q-119 -149 -121 -408 q2 -252 120 -397 q118 -145 326 -148 q117 0 201 46 q85 45 131 132 l18 0 l0 -204 q-1 -94 -65 -144 q-64 -51 -182 -52 q-95 1 -153 30 q-58 29 -70 81 l-288 0 q16 -147 149 -234 q134 -87 356 -89 l0 0 Z" /><glyph glyph-name="" unicode="h" d="M156 0 l291 0 l0 633 q1 109 60 174 q60 64 170 66 q99 0 151 -59 q52 -58 52 -173 l0 -641 l291 0 l0 710 q-1 200 -100 306 q-99 107 -278 108 q-122 -1 -208 -54 q-86 -53 -125 -148 l-18 0 l0 602 l-286 0 l0 -1524 Z" /><glyph glyph-name="" unicode="i" d="M148 0 l291 0 l0 1103 l-291 0 l0 -1103 ZM294 1257 q79 1 125 41 q46 40 47 106 q-1 66 -47 106 q-46 40 -125 41 q-80 -1 -125 -41 q-46 -40 -47 -106 q1 -66 47 -106 q45 -40 125 -41 l0 0 Z" /><glyph glyph-name="" unicode="j" d="M439 1103 l-291 0 l0 -1129 q1 -65 -32 -95 q-32 -29 -108 -29 q-8 0 -20 0 q-12 0 -17 1 l0 -223 q11 -2 36 -3 q24 -1 42 -1 q192 0 291 86 q99 86 99 256 l0 1137 ZM294 1257 q79 1 125 41 q46 40 47 106 q-1 66 -47 106 q-46 40 -125 41 q-80 -1 -125 -41 q-46 -40 -47 -106 q1 -66 47 -106 q45 -40 125 -41 l0 0 Z" /><glyph glyph-name="" unicode="k" d="M465 672 l-18 0 l0 852 l-291 0 l0 -1524 l291 0 l0 366 l80 82 l322 -448 l345 0 l-449 630 l420 473 l-331 0 l-369 -431 Z" /><glyph glyph-name="" unicode="l" d="M156 0 l291 0 l0 1524 l-291 0 l0 -1524 Z" /><glyph glyph-name="" unicode="m" d="M146 0 l291 0 l0 664 q2 94 55 152 q53 58 140 60 q86 -1 134 -48 q47 -48 48 -136 l0 -692 l280 0 l0 675 q1 89 53 144 q51 55 141 57 q184 0 184 -196 l0 -680 l291 0 l0 757 q-2 172 -96 270 q-94 98 -261 100 q-117 -1 -205 -56 q-87 -55 -127 -148 l-18 0 q-33 97 -111 150 q-77 53 -194 54 q-110 -1 -190 -55 q-80 -54 -115 -149 l-18 0 l0 180 l-282 0 l0 -1103 Z" /><glyph glyph-name="" unicode="n" d="M146 0 l291 0 l0 636 q1 110 58 174 q58 65 160 66 q103 0 153 -59 q50 -59 50 -173 l0 -644 l291 0 l0 713 q-1 199 -97 306 q-96 107 -280 108 q-123 -1 -205 -54 q-82 -53 -121 -147 l-18 0 l0 177 l-282 0 l0 -1103 Z" /><glyph glyph-name="" unicode="o" d="M635 -24 q256 2 399 153 q142 150 144 423 q-2 271 -145 422 q-144 151 -398 153 q-254 -2 -397 -154 q-144 -151 -146 -421 q2 -273 144 -423 q143 -151 399 -153 l0 0 ZM635 214 q-118 1 -180 88 q-63 88 -64 250 q1 160 64 248 q63 88 180 89 q116 -1 180 -89 q63 -88 64 -248 q-1 -162 -64 -249 q-63 -88 -180 -89 l0 0 Z" /><glyph glyph-name="" unicode="p" d="M783 1121 q-115 -1 -203 -53 q-88 -52 -134 -146 l-18 0 l0 181 l-282 0 l0 -1469 l291 0 l0 535 l18 0 q41 -88 128 -137 q86 -48 205 -49 q209 2 326 151 q117 149 119 418 q-2 270 -120 418 q-119 149 -330 151 l0 0 ZM684 226 q-117 1 -183 87 q-66 85 -67 238 q1 153 67 239 q67 86 184 87 q117 -1 183 -87 q65 -85 66 -238 q-1 -154 -66 -239 q-65 -86 -184 -87 l0 0 Z" /><glyph glyph-name="" unicode="q" d="M543 1121 q-211 -3 -330 -153 q-119 -150 -121 -415 q2 -267 119 -417 q116 -150 326 -153 q118 1 202 49 q84 48 129 137 l18 0 l0 -535 l292 0 l0 1469 l-283 0 l0 -181 l-18 0 q-45 93 -133 145 q-88 53 -201 54 l0 0 ZM638 226 q-117 1 -182 87 q-64 85 -65 239 q1 153 66 238 q65 86 182 87 q117 -2 183 -88 q67 -86 68 -238 q-1 -153 -67 -238 q-67 -86 -185 -87 l0 0 Z" /><glyph glyph-name="" unicode="r" d="M146 0 l291 0 l0 611 q2 117 74 183 q73 65 194 66 q37 0 78 -6 q41 -5 60 -12 l0 265 q-20 7 -51 10 q-32 4 -63 4 q-107 -2 -183 -56 q-76 -54 -100 -138 l-18 0 l0 176 l-282 0 l0 -1103 Z" /><glyph glyph-name="" unicode="s" d="M121 779 q0 -127 79 -206 q79 -78 239 -113 l200 -45 q72 -15 106 -42 q33 -26 33 -66 q-1 -54 -53 -86 q-52 -31 -138 -32 q-87 0 -140 31 q-52 30 -69 87 l-284 0 q16 -160 142 -245 q125 -85 345 -86 q220 2 351 100 q132 97 135 264 q1 123 -75 195 q-75 73 -235 107 l-207 45 q-76 17 -113 43 q-36 27 -36 67 q2 53 52 85 q49 31 129 32 q81 -1 130 -31 q48 -30 60 -84 l269 0 q-13 159 -131 243 q-119 84 -330 85 q-209 -2 -333 -96 q-123 -93 -126 -252 l0 0 Z" /><glyph glyph-name="" unicode="t" d="M229 1365 l0 -273 l-172 0 l0 -229 l172 0 l0 -565 q-2 -160 87 -232 q88 -71 287 -70 q43 0 81 4 q38 4 65 9 l0 222 q-20 -2 -39 -3 q-19 -1 -47 -1 q-74 0 -109 34 q-34 34 -34 106 l0 496 l229 0 l0 229 l-229 0 l0 273 l-291 0 Z" /><glyph glyph-name="" unicode="u" d="M1144 1103 l-291 0 l0 -636 q0 -111 -57 -174 q-57 -63 -166 -64 q-101 0 -152 58 q-51 58 -51 172 l0 644 l-291 0 l0 -719 q2 -193 104 -300 q102 -106 282 -108 q125 1 204 53 q79 51 118 148 l18 0 l0 -177 l282 0 l0 1103 Z" /><glyph glyph-name="" unicode="v" d="M1143 1103 l-307 0 l-226 -822 l-18 0 l-228 822 l-313 0 l383 -1103 l328 0 l381 1103 Z" /><glyph glyph-name="" unicode="w" d="M1674 1103 l-289 0 l-164 -791 l-18 0 l-194 791 l-278 0 l-193 -791 l-18 0 l-164 791 l-295 0 l294 -1103 l306 0 l195 761 l18 0 l197 -761 l310 0 l293 1103 Z" /><glyph glyph-name="" unicode="x" d="M598 360 l205 -360 l324 0 l-349 558 l346 545 l-318 0 l-195 -362 l-18 0 l-195 362 l-334 0 l348 -558 l-346 -545 l309 0 l205 360 l18 0 Z" /><glyph glyph-name="" unicode="y" d="M283 -401 q203 -3 320 86 q117 88 184 298 l380 1120 l-308 0 l-232 -836 l-18 0 l-232 836 l-321 0 l387 -1110 l-10 -40 q-18 -63 -66 -91 q-48 -28 -129 -28 q-11 0 -34 0 q-22 1 -32 2 l0 -234 q14 -1 56 -2 q42 -1 55 -1 l0 0 Z" /><glyph glyph-name="" unicode="z" d="M121 0 l919 0 l0 232 l-539 0 l0 18 l526 661 l0 192 l-898 0 l0 -232 l550 0 l0 -18 l-558 -681 l0 -172 Z" /><glyph glyph-name="" unicode="0" d="M701 -37 q270 3 420 201 q151 198 153 559 q-3 362 -154 558 q-151 197 -419 199 q-269 -2 -420 -199 q-150 -196 -153 -557 q2 -362 153 -560 q150 -198 420 -201 l0 0 ZM701 209 q-125 1 -195 131 q-71 131 -72 384 q1 252 72 380 q71 129 195 129 q125 0 195 -128 q71 -129 72 -381 q-1 -254 -71 -384 q-70 -130 -196 -131 l0 0 Z" /><glyph glyph-name="" unicode="1" d="M495 0 l302 0 l0 1443 l-301 0 l-373 -257 l0 -281 l354 244 l18 0 l0 -1149 Z" /><glyph glyph-name="" unicode="2" d="M129 1011 l0 -5 l280 0 l0 6 q2 101 66 162 q63 61 170 63 q101 -1 163 -55 q61 -54 63 -143 q3 -66 -51 -144 q-54 -79 -203 -223 l-471 -461 l0 -211 l1041 0 l0 251 l-632 0 l0 18 l276 263 q185 172 261 293 q77 120 74 234 q-4 189 -143 304 q-139 114 -368 117 q-238 -3 -380 -130 q-142 -127 -146 -339 l0 0 Z" /><glyph glyph-name="" unicode="3" d="M498 626 l179 0 q123 -1 191 -55 q69 -54 70 -149 q-2 -94 -71 -150 q-70 -57 -185 -58 q-118 1 -188 54 q-71 53 -79 145 l-289 0 q13 -207 161 -327 q147 -120 392 -123 q251 4 407 123 q155 120 160 313 q-2 144 -87 235 q-85 91 -235 109 l0 18 q122 27 193 115 q71 88 73 215 q-4 173 -143 280 q-140 106 -366 109 q-239 -2 -378 -120 q-140 -118 -150 -325 l279 0 q7 95 71 149 q64 54 170 55 q107 -1 168 -51 q62 -51 63 -139 q-2 -90 -64 -143 q-62 -54 -166 -55 l-176 0 l0 -225 Z" /><glyph glyph-name="" unicode="4" d="M820 0 l288 0 l0 252 l189 0 l0 251 l-189 0 l0 940 l-423 0 q-190 -285 -332 -513 q-142 -228 -239 -411 l0 -267 l706 0 l0 -252 ZM385 510 q123 221 225 387 q103 166 201 311 l16 0 l0 -714 l-442 0 l0 16 Z" /><glyph glyph-name="" unicode="5" d="M691 -37 q252 4 400 143 q149 139 152 372 q-4 216 -131 348 q-128 132 -337 136 q-107 -1 -184 -37 q-76 -37 -122 -104 l-18 0 l32 371 l673 0 l0 251 l-907 0 l-72 -837 l270 0 q38 61 100 95 q63 34 147 35 q117 -2 188 -73 q71 -71 73 -192 q-2 -119 -73 -189 q-71 -70 -189 -72 q-105 1 -175 55 q-70 54 -85 145 l-279 0 q10 -197 154 -320 q144 -123 383 -127 l0 0 Z" /><glyph glyph-name="" unicode="6" d="M722 -37 q246 4 397 144 q151 140 155 369 q-4 211 -135 343 q-130 132 -340 136 q-127 -1 -222 -55 q-95 -55 -146 -158 l-18 0 q-3 227 80 357 q82 130 232 133 q86 -1 147 -42 q62 -41 84 -113 l299 0 q-34 183 -177 292 q-142 108 -351 111 q-284 -3 -442 -205 q-158 -202 -160 -564 q0 -149 31 -272 q30 -122 90 -215 q75 -127 197 -194 q121 -67 279 -67 l0 0 ZM719 211 q-113 2 -186 74 q-73 72 -75 185 q2 110 74 180 q73 70 188 72 q115 -2 187 -72 q72 -71 74 -183 q-2 -111 -75 -182 q-73 -72 -187 -74 l0 0 Z" /><glyph glyph-name="" unicode="7" d="M210 0 l316 0 l603 1192 l0 252 l-1032 0 l0 -249 l728 0 l0 -18 l-615 -1177 Z" /><glyph glyph-name="" unicode="8" d="M710 -37 q264 3 422 118 q158 114 162 307 q-2 140 -87 239 q-86 98 -232 127 l0 18 q120 29 189 113 q70 84 71 201 q-4 176 -147 283 q-143 108 -377 111 q-234 -3 -378 -111 q-143 -107 -147 -283 q2 -117 71 -201 q70 -84 189 -113 l0 -18 q-147 -34 -231 -133 q-85 -98 -87 -236 q4 -191 161 -305 q157 -114 421 -117 l0 0 ZM710 191 q-120 2 -193 62 q-73 60 -75 160 q2 101 75 161 q73 60 193 62 q121 -2 194 -62 q73 -60 75 -161 q-2 -100 -75 -160 q-73 -60 -194 -62 l0 0 ZM710 859 q-101 2 -163 56 q-61 54 -63 142 q2 89 63 143 q61 55 163 56 q102 -1 164 -56 q61 -54 63 -143 q-2 -88 -63 -142 q-62 -54 -164 -56 l0 0 Z" /><glyph glyph-name="" unicode="9" d="M674 -37 q284 3 442 205 q158 202 160 565 q0 148 -30 271 q-31 123 -91 216 q-76 127 -197 193 q-122 67 -279 67 q-246 -4 -397 -144 q-151 -140 -155 -369 q4 -211 135 -342 q131 -132 340 -136 q127 1 222 56 q95 54 146 157 l2 0 q0 0 3 0 q2 0 4 0 q3 0 6 0 q3 0 3 0 q3 -228 -79 -358 q-83 -130 -233 -133 q-86 1 -147 42 q-62 41 -84 113 l-299 0 q34 -183 177 -291 q142 -109 351 -112 l0 0 ZM681 722 q-115 2 -187 72 q-72 70 -74 183 q3 111 76 182 q73 72 186 74 q113 -2 186 -75 q73 -72 75 -184 q-2 -111 -74 -180 q-73 -70 -188 -72 l0 0 Z" /><glyph glyph-name="" unicode="&amp;" d="M1172 0 l327 0 l-268 282 q59 80 91 190 q32 110 32 241 l0 90 l-245 0 l0 -71 q0 -90 -13 -154 q-12 -64 -38 -109 l-277 287 q151 81 223 174 q72 93 71 204 q-3 149 -113 239 q-110 90 -290 92 q-181 -3 -294 -95 q-114 -93 -117 -242 q-1 -78 40 -155 q41 -77 139 -176 q-9 -5 -33 -18 q-24 -14 -31 -17 q-139 -76 -204 -169 q-66 -93 -65 -216 q3 -187 137 -295 q135 -108 368 -110 q134 1 251 38 q116 38 198 107 l111 -117 ZM535 618 q9 5 21 11 q12 6 21 9 l331 -349 q-44 -45 -115 -71 q-71 -26 -151 -27 q-119 1 -189 58 q-71 57 -73 153 q0 66 38 120 q38 53 117 96 l0 0 ZM646 897 q-73 69 -104 118 q-31 49 -30 97 q1 69 45 110 q44 42 116 43 q72 -1 115 -42 q43 -42 44 -111 q1 -63 -43 -115 q-45 -51 -143 -100 l0 0 Z" /><glyph glyph-name="" unicode="(" d="M223 607 q0 -276 74 -506 q74 -230 223 -411 l268 0 q-113 148 -187 399 q-74 250 -77 519 q3 269 77 519 q74 250 187 397 l-268 0 q-149 -179 -223 -409 q-74 -230 -74 -508 l0 0 Z" /><glyph glyph-name="" unicode=")" d="M655 607 q0 278 -74 508 q-74 230 -222 409 l-269 0 q113 -147 187 -397 q74 -250 77 -519 q-3 -269 -76 -519 q-74 -251 -188 -399 l269 0 q149 181 223 411 q73 230 73 506 l0 0 Z" /><glyph glyph-name="" unicode="-&#x2011;" d="M825 446 l0 273 l-657 0 l0 -273 l657 0 Z" /><glyph glyph-name="" unicode="&#39;" d="M402 831 l0 612 l-250 0 l0 -612 l250 0 Z" /><glyph glyph-name="" unicode="," d="M336 -391 l182 625 l-285 0 l-92 -625 l195 0 Z" /><glyph glyph-name="" unicode="." d="M356 -27 q82 1 129 49 q47 48 48 125 q-1 77 -48 124 q-47 48 -129 49 q-81 -1 -129 -49 q-47 -47 -48 -124 q1 -77 48 -125 q48 -48 129 -49 l0 0 Z" /><glyph glyph-name="" unicode=":" d="M356 -27 q82 1 129 49 q47 48 48 125 q-1 77 -48 124 q-47 48 -129 49 q-81 -1 -129 -49 q-47 -47 -48 -124 q1 -77 48 -125 q48 -48 129 -49 l0 0 ZM356 711 q82 1 129 49 q47 48 48 125 q-1 77 -48 124 q-47 48 -129 49 q-81 -1 -129 -49 q-47 -47 -48 -124 q1 -77 48 -125 q48 -48 129 -49 l0 0 Z" /><glyph glyph-name="" unicode="=" d="M1244 216 l0 259 l-1073 0 l0 -259 l1073 0 ZM1244 695 l0 259 l-1073 0 l0 -259 l1073 0 Z" /><glyph glyph-name="" unicode="+" d="M835 455 l413 0 l0 258 l-413 0 l0 408 l-255 0 l0 -408 l-412 0 l0 -258 l412 0 l0 -409 l255 0 l0 409 Z" /><glyph glyph-name="" unicode="_" d="M947 -334 l0 227 l-949 0 l0 -227 l949 0 Z" /><glyph glyph-name="" unicode="^" d="M524 1182 l18 0 l183 -410 l257 0 l-319 636 l-259 0 l-319 -636 l257 0 l182 410 Z" /><glyph glyph-name="" unicode="*" d="M808 783 l100 178 l-271 109 l271 108 l-100 180 l-232 -185 l41 293 l-201 0 l40 -293 l-232 185 l-100 -180 l272 -108 l-272 -109 l100 -178 l231 179 l-39 -288 l201 0 l-39 288 l230 -179 Z" /><glyph glyph-name="" unicode="%" d="M741 1111 q-2 167 -93 265 q-91 98 -245 100 q-154 -2 -245 -101 q-91 -98 -93 -264 q2 -167 94 -266 q91 -99 244 -101 q154 2 245 101 q91 99 93 266 l0 0 ZM403 936 q-53 1 -84 47 q-30 46 -31 128 q1 82 31 128 q30 46 84 47 q54 -1 85 -46 q30 -46 30 -129 q-1 -82 -31 -128 q-31 -46 -84 -47 l0 0 ZM506 0 l424 681 l554 762 l-281 0 l-434 -687 l-545 -756 l282 0 ZM1636 333 q-2 167 -93 266 q-91 98 -245 100 q-153 -2 -244 -101 q-91 -98 -93 -265 q2 -167 93 -265 q91 -99 244 -101 q154 2 245 101 q91 98 93 265 l0 0 ZM1298 159 q-53 1 -84 47 q-30 46 -31 128 q1 82 31 128 q30 45 84 46 q54 -1 85 -46 q30 -45 30 -128 q-1 -82 -31 -128 q-31 -46 -84 -47 l0 0 Z" /></font>
</defs>
</svg>
