<svg xmlns="http://www.w3.org/2000/svg" width="23" height="23" viewBox="0 0 23 23" fill="currentColor">
  <g transform="translate(-1099 -372)">
    <path
      d="M4.131,43.639l.59-.59a1.435,1.435,0,0,1,1.975,0l3.511,3.542a1.417,1.417,0,0,1,.326,1.5l.059.106c.032.058.086.161.155.3.114.228.227.475.334.732a8.3,8.3,0,0,1,.344.988,2.953,2.953,0,0,1,.086,1.573,1.31,1.31,0,0,1-1.377.942,1.291,1.291,0,0,1-1.367-.95,2.961,2.961,0,0,1,.117-1.573q.063-.217.146-.443L6.014,52.806a1.359,1.359,0,0,1-1.007.4,1.521,1.521,0,0,1-.969-.369L4,52.806.489,49.264a1.383,1.383,0,0,1,0-1.985l2.962-2.962-.843-.843a.48.48,0,1,1,.678-.678ZM4.12,44.985,1.163,47.94a.47.47,0,0,0,.017.672L4.638,52.1a.61.61,0,0,0,.372.15.45.45,0,0,0,.354-.131l4.168-4.2a.47.47,0,0,0-.017-.673L6.038,43.737a.522.522,0,0,0-.671,0l-.568.568,1.368,1.368a.48.48,0,1,1-.678.678L4.12,44.985Zm6.075,4.607-.031-.075-.044.1a7.47,7.47,0,0,0-.314.855,2.177,2.177,0,0,0-.112,1.056c.047.174.146.245.442.245.512,0,.62-.371.365-1.309A7.345,7.345,0,0,0,10.195,49.592Z"
      transform="translate(1104.673 335.526)"
    />
  </g>
</svg>
