<svg xmlns="http://www.w3.org/2000/svg" width="23" height="23" viewBox="0 0 23 23" fill="currentColor">
  <g transform="translate(-1314 -849)">
    <path
      d="M11.037,10.5H1.463A1.474,1.474,0,0,1,0,9.019V1.481A1.474,1.474,0,0,1,1.463,0h9.574A1.474,1.474,0,0,1,12.5,1.481V9.019A1.474,1.474,0,0,1,11.037,10.5ZM3.059,3.723a.136.136,0,0,0-.1.039L.8,5.956V9.019a.67.67,0,0,0,.665.673h9.574a.674.674,0,0,0,.649-.523L8.473,5.916a.136.136,0,0,0-.191,0l-1.5,1.521L3.154,3.762A.136.136,0,0,0,3.059,3.723ZM8.378,5.069a.926.926,0,0,1,.66.276l2.665,2.7V1.481a.67.67,0,0,0-.664-.673H1.463A.67.67,0,0,0,.8,1.481V4.813L2.4,3.192a.926.926,0,0,1,1.319,0l3.064,3.1.936-.949A.926.926,0,0,1,8.378,5.069ZM9.441,4.038a.942.942,0,1,1,.931-.942A.937.937,0,0,1,9.441,4.038Zm0-1.077a.135.135,0,1,0,.133.135A.134.134,0,0,0,9.441,2.962Z"
      transform="translate(1319.25 855.25)"
    />
  </g>
</svg>
