<svg xmlns="http://www.w3.org/2000/svg" width="23" height="23" viewBox="0 0 23 23">
  <defs>
    <style>
      .t1686828180138-1, .t1686828180138-2 {
        fill: currentColor;
        stroke: currentColor;
      }
      .t1686828180138-1 {
        stroke-width: 0.4px;
      }
      .t1686828180138-2 {
        stroke-width: 0.3px;
      }
    </style>
  </defs>
  <g transform="translate(-1314 -849)">
    <path class="t1686828180138-1" d="M0,.355A.357.357,0,0,1,.355,0H8.871a.357.357,0,0,1,.355.355V1.774a.355.355,0,0,1-.71,0V.71H4.968V9.462H6.032a.355.355,0,1,1,0,.71H3.193a.355.355,0,1,1,0-.71H4.258V.71H.71V1.774a.357.357,0,0,1-.355.355A.357.357,0,0,1,0,1.774V.355" transform="translate(1319.769 856.034)"/>
    <path class="t1686828180138-2" d="M0,.14A.141.141,0,0,1,.14,0H3.494a.141.141,0,0,1,.14.14V.7a.14.14,0,0,1-.28,0V.28h-1.4V3.418h.419a.14.14,0,1,1,0,.28H1.258a.14.14,0,1,1,0-.28h.419V.28H.28V.7a.141.141,0,0,1-.14.14A.141.141,0,0,1,0,.7V.14" transform="translate(1328.006 862.509)"/>
  </g>
</svg>
